# xmcd
#
# Track frame offsets:
# 150
# 2873
# 17302
# 29063
# 39408
# 49644
# 58644
# 68826
# 76776
# 87230
# 97521
# 108302
# 116633
# 124964
# 135309
# 143912
# 153713
# 161826
# 172171
# 181301
# 188325
# 196819
# 206224
# 214712
# 224519
# 234326
# 242814
# 251523
# 262280
# 270353
# 277832
# 285806
# 292344
# 299278
# 307017
# 314650
# 321259
# 327586
# 336284
# 343622
#
# Disc length: 4699 seconds
#
#
# Revision: 0
# Processed by: cddbd v1.5.2PL0 Copyright (c) Steve Scherf et al.
# Submitted via: FreeRIP 2.951 
#
DISCID=5b125928
DTITLE=toca tudo 9 - só bailão
DYEAR=2003
DGENRE=Country
TTITLE0=abertura
TTITLE1=escorpião
TTITLE2=galera fellicidade
TTITLE3=a 150 por minuto
TTITLE4=ou sim ou não
TTITLE5=professora de ingles
TTITLE6=eu quero é namorar
TTITLE7=aonde tem sanfona tem forró
TTITLE8=eu quero te namorar
TTITLE9=toque de cordeona
TTITLE10=A M M M
TTITLE11=uma véia gaúcha
TTITLE12=aí é que eutô lá
TTITLE13=o gato comeu
TTITLE14=ta embolado o meio de campo
TTITLE15=to doidão
TTITLE16=to facinho to facinho
TTITLE17=parece carrapicho
TTITLE18=pode descer cerveja
TTITLE19=xec xec
TTITLE20=amor sem juizo
TTITLE21=toque toque dj
TTITLE22=giripoca vai piá
TTITLE23=muleca
TTITLE24=pinha no pinheiro
TTITLE25=dormi na praça
TTITLE26=ela é demais
TTITLE27=um homem apaixonado
TTITLE28=mulher chorona
TTITLE29=mexe que mexe
TTITLE30=rabo de saia
TTITLE31=é mentira dela
TTITLE32=cheio de má intenção
TTITLE33=vai chover mulher
TTITLE34=ta loco de bom
TTITLE35=outra noite  no sofá
TTITLE36=é assim que eu sou
TTITLE37=ao luar
TTITLE38=100 anos
TTITLE39=encerramento
EXTD=
EXTT0=
EXTT1=
EXTT2=
EXTT3=
EXTT4=
EXTT5=
EXTT6=
EXTT7=
EXTT8=
EXTT9=
EXTT10=
EXTT11=
EXTT12=
EXTT13=
EXTT14=
EXTT15=
EXTT16=
EXTT17=
EXTT18=
EXTT19=
EXTT20=
EXTT21=
EXTT22=
EXTT23=
EXTT24=
EXTT25=
EXTT26=
EXTT27=
EXTT28=
EXTT29=
EXTT30=
EXTT31=
EXTT32=
EXTT33=
EXTT34=
EXTT35=
EXTT36=
EXTT37=
EXTT38=
EXTT39=
PLAYORDER=
